<?xml version="1.0" encoding="UTF-8" standalone="no"?>
<!-- Generator: Adobe Illustrator 25.4.1, SVG Export Plug-In . SVG Version: 6.00 Build 0)  -->

<svg
   version="1.1"
   id="Capa_1"
   x="0px"
   y="0px"
   viewBox="0 0 40 60"
   xml:space="preserve"
   sodipodi:docname="4.svg"
   width="40"
   height="60"
   inkscape:version="1.2 (dc2aedaf03, 2022-05-15)"
   xmlns:inkscape="http://www.inkscape.org/namespaces/inkscape"
   xmlns:sodipodi="http://sodipodi.sourceforge.net/DTD/sodipodi-0.dtd"
   xmlns="http://www.w3.org/2000/svg"
   xmlns:svg="http://www.w3.org/2000/svg"><defs
   id="defs13" /><sodipodi:namedview
   id="namedview11"
   pagecolor="#ffffff"
   bordercolor="#666666"
   borderopacity="1.0"
   inkscape:pageshadow="2"
   inkscape:pageopacity="0.0"
   inkscape:pagecheckerboard="0"
   showgrid="false"
   width="40px"
   inkscape:zoom="9.9"
   inkscape:cx="20"
   inkscape:cy="21.919192"
   inkscape:window-width="1516"
   inkscape:window-height="797"
   inkscape:window-x="-8"
   inkscape:window-y="-8"
   inkscape:window-maximized="1"
   inkscape:current-layer="g17682"
   inkscape:showpageshadow="2"
   inkscape:deskcolor="#d1d1d1"
   showguides="true" />
<style
   type="text/css"
   id="style2">
	.st0{fill:#00FF00;}
</style>


<g
   id="g13455"><a
     id="a13458"
     transform="matrix(1.2085232,0,0,1.2085232,-4.1704644,-6.2638133)"><g
       id="g30030"
       transform="matrix(1.1261832,0,0,1.125,-2.5236641,-3.7508386)"><g
         style="fill:none"
         id="g17682"
         transform="matrix(1.5906463,0,0,1.5906463,-2.2690876,7.7843063)"><path
           d="m 8.6028301,16.70636 c 1.8629889,3.962754 4.5973209,7.481696 7.4862949,8.518921 1.291693,0.463755 2.58804,0.417277 3.855454,-0.26266 0.744404,-0.400505 1.313582,-0.963947 1.557351,-1.644346 0.187219,-0.522555 0.163808,-1.10959 -0.211945,-1.645106 l -2.256866,-3.236222 c -0.363041,-0.508793 -0.700859,-0.808102 -1.055811,-0.935538 -0.463434,-0.166387 -0.969459,-0.05873 -1.585522,0.23197 l -0.964243,0.455028 c -0.157109,0.06602 -0.312893,0.06581 -0.441008,0.01982 -0.157844,-0.05668 -0.284481,-0.16899 -0.361909,-0.263515 -0.50107,-0.558229 -1.240925,-1.847666 -1.873659,-3.187655 -0.632735,-1.339989 -1.171716,-2.724311 -1.271078,-3.472194 -0.02026,-0.129709 -0.02007,-0.285377 0.03645,-0.443108 0.0424,-0.11836 0.131217,-0.242205 0.282102,-0.321611 l 0.967777,-0.464907 C 13.375946,9.7511001 13.787014,9.4423652 13.953011,8.9790433 14.083736,8.6141746 14.067306,8.1631486 13.901653,7.5695267 L 12.835915,3.8039003 C 12.654796,3.1602052 12.219796,2.7592052 11.657774,2.5574231 10.987292,2.3167007 10.210845,2.3717791 9.4277434,2.724938 8.1096922,3.2977738 7.2625409,4.2956282 6.8068378,5.5675648 5.7717865,8.4565507 6.736221,12.753323 8.6028301,16.70636 Z"
           fill="#1c1c1e"
           id="path17673"
           style="fill:#808080;fill-opacity:1;stroke-width:1.19182" /></g></g></a></g>
</svg>
