<?xml version="1.0" encoding="UTF-8" standalone="no"?>
<svg
   class="psd__status-icon psd__information"
   fill="none"
   aria-label="Informational status"
   height="20"
   width="20"
   version="1.1"
   id="svg4"
   sodipodi:docname="alert.svg"
   inkscape:version="1.2.2 (732a01da63, 2022-12-09)"
   xmlns:inkscape="http://www.inkscape.org/namespaces/inkscape"
   xmlns:sodipodi="http://sodipodi.sourceforge.net/DTD/sodipodi-0.dtd"
   xmlns="http://www.w3.org/2000/svg"
   xmlns:svg="http://www.w3.org/2000/svg">
  <defs
     id="defs8" />
  <sodipodi:namedview
     id="namedview6"
     pagecolor="#ffffff"
     bordercolor="#000000"
     borderopacity="0.25"
     inkscape:showpageshadow="2"
     inkscape:pageopacity="0.0"
     inkscape:pagecheckerboard="0"
     inkscape:deskcolor="#d1d1d1"
     showgrid="false"
     inkscape:zoom="41.45"
     inkscape:cx="8.8781665"
     inkscape:cy="9.9879373"
     inkscape:window-width="1920"
     inkscape:window-height="1009"
     inkscape:window-x="1912"
     inkscape:window-y="-8"
     inkscape:window-maximized="1"
     inkscape:current-layer="svg4" />
  <path
     clip-rule="evenodd"
     d="m 9.9995,1.6665 a 8.336,8.336 0 0 0 -8.333,8.333 c 0,4.6 3.733,8.334 8.333,8.334 4.6,0 8.334,-3.734 8.334,-8.334 0,-4.6 -3.735,-8.333 -8.335,-8.333 z m -0.833,4.167 v 1.666 h 1.667 v -1.666 z m 0,3.333 v 5 h 1.667 v -5 z m -5.833,0.833 a 6.676,6.676 0 0 0 6.665,6.667 6.676,6.676 0 0 0 6.667,-6.667 6.676,6.676 0 0 0 -6.667,-6.666 6.676,6.676 0 0 0 -6.666,6.666 z"
     fill="#1967d2"
     fill-rule="evenodd"
     id="path2" />
</svg>
