<svg xmlns="http://www.w3.org/2000/svg" height="24" viewBox="0 96 960 960" width="24"><path d="M353.076 593.692h35.385v-80h44.615q15.077 0 25.231-10.154 10.154-10.153 10.154-25.23v-44.616q0-15.077-10.154-25.23-10.154-10.154-25.231-10.154h-80v195.384Zm35.385-115.384v-44.616h44.615v44.616h-44.615ZM509.23 593.692h78.461q15.077 0 25.231-10.154 10.154-10.153 10.154-25.23V433.692q0-15.077-10.154-25.23-10.154-10.154-25.231-10.154H509.23v195.384Zm35.384-35.384V433.692h43.077v124.616h-43.077Zm123.077 35.384h35.385v-80h47.693v-35.384h-47.693v-44.616h47.693v-35.384h-83.078v195.384ZM322.308 795.999q-30.308 0-51.307-21-21-21-21-51.308V268.309q0-30.308 21-51.308 20.999-21 51.307-21h455.383q30.307 0 51.307 21 21 21 21 51.308v455.382q0 30.308-21 51.308t-51.307 21H322.308Zm0-59.999h455.383q4.615 0 8.462-3.846 3.846-3.847 3.846-8.463V268.309q0-4.616-3.846-8.463-3.847-3.846-8.462-3.846H322.308q-4.616 0-8.462 3.846-3.847 3.847-3.847 8.463v455.382q0 4.616 3.847 8.463 3.846 3.846 8.462 3.846ZM182.309 935.997q-30.307 0-51.307-21-21-21-21-51.307V348.309h59.999V863.69q0 4.616 3.846 8.462 3.847 3.847 8.462 3.847h515.382v59.998H182.309ZM309.999 256v480-480Z"/></svg>