<?xml version="1.0" encoding="UTF-8" standalone="no"?>
<!-- Generator: Adobe Illustrator 25.4.1, SVG Export Plug-In . SVG Version: 6.00 Build 0)  -->

<svg
   version="1.1"
   id="Capa_1"
   x="0px"
   y="0px"
   viewBox="0 0 40 60"
   xml:space="preserve"
   sodipodi:docname="2.svg"
   width="40"
   height="60"
   inkscape:version="1.3 (0e150ed6c4, 2023-07-21)"
   xmlns:inkscape="http://www.inkscape.org/namespaces/inkscape"
   xmlns:sodipodi="http://sodipodi.sourceforge.net/DTD/sodipodi-0.dtd"
   xmlns="http://www.w3.org/2000/svg"
   xmlns:svg="http://www.w3.org/2000/svg"><defs
   id="defs13" /><sodipodi:namedview
   id="namedview11"
   pagecolor="#ffffff"
   bordercolor="#666666"
   borderopacity="1.0"
   inkscape:pageshadow="2"
   inkscape:pageopacity="0.0"
   inkscape:pagecheckerboard="0"
   showgrid="false"
   width="40px"
   inkscape:zoom="7.7163028"
   inkscape:cx="14.838713"
   inkscape:cy="17.430628"
   inkscape:window-width="1920"
   inkscape:window-height="1017"
   inkscape:window-x="1912"
   inkscape:window-y="20"
   inkscape:window-maximized="1"
   inkscape:current-layer="g2"
   inkscape:showpageshadow="2"
   inkscape:deskcolor="#d1d1d1" />&#10;<style
   type="text/css"
   id="style2">&#10;	.st0{fill:#00FF00;}&#10;</style>&#10;&#10;&#10;<g
   id="g18"
   transform="translate(-492.26001,-610.41998)"><g
     id="g2"
     transform="matrix(0.16841822,0,0,0.16841822,486.72882,614.88879)"><polygon
       style="fill:#fb3449;fill-opacity:1"
       points="219.821,0 32.842,0 32.842,303.188 270.346,303.188 270.346,50.525 "
       id="polygon1" /><polygon
       style="fill:#fb3449"
       points="227.64,25.263 32.842,25.263 32.842,0 219.821,0 "
       id="polygon2" /><g
       id="g4"
       transform="matrix(1.7349038,0,0,1.7349038,-112.27619,-269.41976)"
       style="fill:#ffffff;fill-opacity:1">&#10;		<path
   style="fill:#ffffff;fill-opacity:1"
   d="m 126.841,241.152 c 0,5.361 -1.58,9.501 -4.742,12.421 -3.162,2.921 -7.652,4.381 -13.472,4.381 h -3.643 v 15.917 H 92.022 v -47.979 h 16.606 c 6.06,0 10.611,1.324 13.652,3.971 3.041,2.647 4.561,6.41 4.561,11.289 z m -21.856,6.235 h 2.363 c 1.947,0 3.495,-0.546 4.644,-1.641 1.149,-1.094 1.723,-2.604 1.723,-4.529 0,-3.238 -1.794,-4.857 -5.382,-4.857 h -3.348 z"
   id="path2" />&#10;		<path
   style="fill:#ffffff;fill-opacity:1"
   d="m 175.215,248.864 c 0,8.007 -2.205,14.177 -6.613,18.509 -4.408,4.332 -10.606,6.498 -18.591,6.498 h -15.523 v -47.979 h 16.606 c 7.701,0 13.646,1.969 17.836,5.907 4.189,3.938 6.285,9.627 6.285,17.065 z m -13.455,0.46 c 0,-4.398 -0.87,-7.657 -2.609,-9.78 -1.739,-2.122 -4.381,-3.183 -7.926,-3.183 h -3.773 v 26.877 h 2.888 c 3.939,0 6.826,-1.143 8.664,-3.43 1.837,-2.285 2.756,-5.78 2.756,-10.484 z"
   id="path3" />&#10;		<path
   style="fill:#ffffff;fill-opacity:1"
   d="m 196.579,273.871 h -12.766 v -47.979 h 28.355 v 10.403 h -15.589 v 9.156 h 14.374 v 10.403 h -14.374 z"
   id="path4" />&#10;	</g><polygon
       style="fill:#d1d3d3"
       points="219.821,0 219.821,50.525 270.346,50.525 "
       id="polygon4" /></g></g>&#10;</svg>
